<svg xmlns="http://www.w3.org/2000/svg" viewBox="0 -45 1036.112 825.08"><rect x="0" y="-45" width="1036.112" height="825.08" fill="white"/><text x="12" y="-15" font-size="14" font-family="sans-serif">Schematic only — no source plan underlay / Upper floor</text><polygon points="70.000,704.480 70.000,715.680 966.112,715.680 966.112,704.480" fill="#006bb3" fill-opacity="0.5" stroke="#006bb3" stroke-width="1"/><polygon points="155.344,704.480 155.344,715.680 262.024,715.680 262.024,704.480" fill="#ed8732" fill-opacity="0.9" stroke="#ed8732" stroke-width="1"/><polygon points="454.048,704.480 454.048,715.680 560.728,715.680 560.728,704.480" fill="#ed8732" fill-opacity="0.9" stroke="#ed8732" stroke-width="1"/><polygon points="731.416,704.480 731.416,715.680 880.768,715.680 880.768,704.480" fill="#ed8732" fill-opacity="0.9" stroke="#ed8732" stroke-width="1"/><polygon points="960.512,710.080 971.712,710.080 971.712,70.000 960.512,70.000" fill="#006bb3" fill-opacity="0.5" stroke="#006bb3" stroke-width="1"/><polygon points="960.512,624.736 971.712,624.736 971.712,539.392 960.512,539.392" fill="#ed8732" fill-opacity="0.9" stroke="#ed8732" stroke-width="1"/><polygon points="960.512,240.688 971.712,240.688 971.712,176.680 960.512,176.680" fill="#ed8732" fill-opacity="0.9" stroke="#ed8732" stroke-width="1"/><polygon points="966.112,75.600 966.112,64.400 70.000,64.400 70.000,75.600" fill="#006bb3" fill-opacity="0.5" stroke="#006bb3" stroke-width="1"/><polygon points="304.696,75.600 304.696,64.400 198.016,64.400 198.016,75.600" fill="#ed8732" fill-opacity="0.9" stroke="#ed8732" stroke-width="1"/><polygon points="518.056,75.600 518.056,64.400 454.048,64.400 454.048,75.600" fill="#ed8732" fill-opacity="0.9" stroke="#ed8732" stroke-width="1"/><polygon points="75.600,70.000 64.400,70.000 64.400,710.080 75.600,710.080" fill="#006bb3" fill-opacity="0.5" stroke="#006bb3" stroke-width="1"/><polygon points="75.600,539.392 64.400,539.392 64.400,624.736 75.600,624.736" fill="#ed8732" fill-opacity="0.9" stroke="#ed8732" stroke-width="1"/><polygon points="70.000,449.848 70.000,458.248 667.408,458.248 667.408,449.848" fill="#006bb3" fill-opacity="0.5" stroke="#006bb3" stroke-width="1"/><polygon points="368.704,449.848 368.704,458.248 425.600,458.248 425.600,449.848" fill="#ed8732" fill-opacity="0.9" stroke="#ed8732" stroke-width="1"/><polygon points="454.048,449.848 454.048,458.248 510.944,458.248 510.944,449.848" fill="#ed8732" fill-opacity="0.9" stroke="#ed8732" stroke-width="1"/><polygon points="70.000,364.504 70.000,372.904 667.408,372.904 667.408,364.504" fill="#006bb3" fill-opacity="0.5" stroke="#006bb3" stroke-width="1"/><polygon points="368.704,364.504 368.704,372.904 425.600,372.904 425.600,364.504" fill="#ed8732" fill-opacity="0.9" stroke="#ed8732" stroke-width="1"/><polygon points="432.712,364.504 432.712,372.904 486.052,372.904 486.052,364.504" fill="#ed8732" fill-opacity="0.9" stroke="#ed8732" stroke-width="1"/><polygon points="592.732,364.504 592.732,372.904 646.072,372.904 646.072,364.504" fill="#ed8732" fill-opacity="0.9" stroke="#ed8732" stroke-width="1"/><polygon points="407.176,710.080 415.576,710.080 415.576,454.048 407.176,454.048" fill="#006bb3" fill-opacity="0.5" stroke="#006bb3" stroke-width="1"/><polygon points="407.176,368.704 415.576,368.704 415.576,70.000 407.176,70.000" fill="#006bb3" fill-opacity="0.5" stroke="#006bb3" stroke-width="1"/><polygon points="556.528,368.704 564.928,368.704 564.928,70.000 556.528,70.000" fill="#006bb3" fill-opacity="0.5" stroke="#006bb3" stroke-width="1"/><polygon points="663.208,710.080 671.608,710.080 671.608,70.000 663.208,70.000" fill="#006bb3" fill-opacity="0.5" stroke="#006bb3" stroke-width="1"/><polygon points="663.208,432.712 671.608,432.712 671.608,368.704 663.208,368.704" fill="#ed8732" fill-opacity="0.9" stroke="#ed8732" stroke-width="1"/><polygon points="667.408,321.832 667.408,330.232 966.112,330.232 966.112,321.832" fill="#006bb3" fill-opacity="0.5" stroke="#006bb3" stroke-width="1"/><polygon points="731.416,321.832 731.416,330.232 788.312,330.232 788.312,321.832" fill="#ed8732" fill-opacity="0.9" stroke="#ed8732" stroke-width="1"/></svg>